<?xml version="1.0" standalone="no"?>
<!DOCTYPE svg PUBLIC "-//W3C//DTD SVG 20010904//EN"
 "http://www.w3.org/TR/2001/REC-SVG-20010904/DTD/svg10.dtd">
<svg version="1.0" xmlns="http://www.w3.org/2000/svg"
 width="2048.000000pt" height="2048.000000pt" viewBox="0 0 2048.000000 2048.000000"
 preserveAspectRatio="xMidYMid meet">

<g transform="translate(0.000000,2048.000000) scale(0.100000,-0.100000)"
fill="#000000" stroke="none">
<path d="M9835 18080 c-794 -30 -1479 -146 -2002 -340 -172 -64 -467 -208
-593 -290 -363 -237 -612 -542 -717 -875 l-28 -90 -3 -902 -3 -903 1876 0
1875 0 0 -345 0 -345 -3122 -2 -3123 -3 -90 -28 c-268 -84 -533 -274 -738
-527 -234 -290 -430 -712 -557 -1205 -147 -566 -213 -1181 -213 -1985 0 -432
10 -655 44 -1000 84 -847 287 -1535 594 -2006 231 -356 539 -607 870 -711 l90
-28 902 -3 902 -3 4 988 c3 886 5 999 21 1093 95 565 318 1001 700 1368 325
312 744 523 1206 606 217 39 199 39 2545 46 l2290 6 125 27 c354 78 603 209
830 437 261 261 404 562 467 985 17 113 18 228 15 1865 -1 960 -6 1932 -11
2160 -8 411 -8 416 -35 505 -79 262 -272 532 -526 738 -532 429 -1413 689
-2570 757 -247 14 -776 19 -1025 10z m-1430 -1044 c176 -60 320 -185 400 -350
137 -280 79 -590 -150 -804 -80 -75 -153 -118 -260 -154 -60 -20 -90 -23 -205
-23 -120 0 -143 3 -211 27 -111 39 -195 92 -274 173 -80 81 -125 152 -163 257
-25 67 -27 85 -27 223 0 143 2 154 31 230 87 227 255 377 489 437 104 26 263
19 370 -16z"/>
</g>
</svg>
